<svg xmlns="http://www.w3.org/2000/svg" viewBox="0 0 16 16" width="32" height="32">
  <!-- Coração do Minecraft em pixel art -->
  <!-- Linha 1 -->
  <rect x="2" y="2" width="2" height="2" fill="#AA0000"/>
  <rect x="4" y="2" width="2" height="2" fill="#FF5555"/>
  <rect x="6" y="2" width="2" height="2" fill="#AA0000"/>
  <rect x="10" y="2" width="2" height="2" fill="#AA0000"/>
  <rect x="12" y="2" width="2" height="2" fill="#FF5555"/>
  <rect x="14" y="2" width="2" height="2" fill="#AA0000"/>
  
  <!-- Linha 2 -->
  <rect x="2" y="4" width="2" height="2" fill="#FF5555"/>
  <rect x="4" y="4" width="2" height="2" fill="#FFAAAA"/>
  <rect x="6" y="4" width="2" height="2" fill="#FF5555"/>
  <rect x="8" y="4" width="2" height="2" fill="#AA0000"/>
  <rect x="10" y="4" width="2" height="2" fill="#FF5555"/>
  <rect x="12" y="4" width="2" height="2" fill="#FFAAAA"/>
  <rect x="14" y="4" width="2" height="2" fill="#FF5555"/>
  
  <!-- Linha 3 -->
  <rect x="2" y="6" width="2" height="2" fill="#FF5555"/>
  <rect x="4" y="6" width="2" height="2" fill="#FFAAAA"/>
  <rect x="6" y="6" width="2" height="2" fill="#FFAAAA"/>
  <rect x="8" y="6" width="2" height="2" fill="#FFAAAA"/>
  <rect x="10" y="6" width="2" height="2" fill="#FFAAAA"/>
  <rect x="12" y="6" width="2" height="2" fill="#FFAAAA"/>
  <rect x="14" y="6" width="2" height="2" fill="#FF5555"/>
  
  <!-- Linha 4 -->
  <rect x="2" y="8" width="2" height="2" fill="#FF5555"/>
  <rect x="4" y="8" width="2" height="2" fill="#FFAAAA"/>
  <rect x="6" y="8" width="2" height="2" fill="#FFAAAA"/>
  <rect x="8" y="8" width="2" height="2" fill="#FFAAAA"/>
  <rect x="10" y="8" width="2" height="2" fill="#FFAAAA"/>
  <rect x="12" y="8" width="2" height="2" fill="#FFAAAA"/>
  <rect x="14" y="8" width="2" height="2" fill="#FF5555"/>
  
  <!-- Linha 5 -->
  <rect x="4" y="10" width="2" height="2" fill="#AA0000"/>
  <rect x="6" y="10" width="2" height="2" fill="#FF5555"/>
  <rect x="8" y="10" width="2" height="2" fill="#FFAAAA"/>
  <rect x="10" y="10" width="2" height="2" fill="#FFAAAA"/>
  <rect x="12" y="10" width="2" height="2" fill="#FF5555"/>
  <rect x="14" y="10" width="2" height="2" fill="#AA0000"/>
  
  <!-- Linha 6 -->
  <rect x="6" y="12" width="2" height="2" fill="#AA0000"/>
  <rect x="8" y="12" width="2" height="2" fill="#FF5555"/>
  <rect x="10" y="12" width="2" height="2" fill="#FF5555"/>
  <rect x="12" y="12" width="2" height="2" fill="#AA0000"/>
  
  <!-- Linha 7 -->
  <rect x="8" y="14" width="2" height="2" fill="#AA0000"/>
  <rect x="10" y="14" width="2" height="2" fill="#AA0000"/>
</svg>
